<?xml version="1.0" encoding="UTF-8"?><svg id="Layer_1" xmlns="http://www.w3.org/2000/svg" viewBox="0 0 398.97 73.89"><defs><style>.cls-1{fill:#fff;}</style></defs><path class="cls-1" d="M120.15,1.51v70.86h17.26V16.83h19.52c7.23,0,9.81,4.1,9.81,8.85s-2.7,8.84-9.92,8.84h-16.72l23.73,37.86h19.63s-16.18-25.45-16.07-25.45c10.03-2.37,16.5-9.38,16.5-21.68,0-13.48-8.84-23.73-27.07-23.73h-36.67ZM91.25,1.51h17.26v70.86h-17.26V1.51ZM47.13,45.62h-14.52l10.75-21.79h.22l24.16,48.54h19.85L51.45,1.51h-15.31L0,72.37h19.41l5.85-11.86h29.09l-7.23-14.88ZM192.09,1.51v70.86h41.96c14.67,0,24.27-7.87,24.27-19.85,0-8.3-4.64-14.56-11.43-16.93,5.5-3.02,8.41-7.88,8.41-14.99,0-11.43-8.52-19.09-22.87-19.09h-40.34ZM209.35,16.5h23.08c3.45,0,6.15,2.7,6.15,6.26s-2.7,6.26-6.26,6.26h-22.97v-12.51ZM209.35,43.14h23.51c4.21,0,7.44,3.02,7.44,7.12,0,4.21-3.24,7.33-7.44,7.33h-23.51v-14.45ZM312.79,41.1c0,10.76-4.96,16.72-14.78,16.72s-14.67-5.96-14.67-16.72V1.51h-17.69v38.29c0,21.9,11.54,34.08,32.36,34.08s32.46-12.19,32.46-34.08V1.51h-17.69v39.58ZM367.8,0c-18.23,0-28.48,9.06-28.48,21.25,0,13.11,7.65,18.44,25.24,22.22,13.69,3.02,16.61,4.9,16.61,8.74,0,4.17-3.77,6.04-11.22,6.04-10.79,0-20.55-2.62-28.36-6.9l-5.29,15.1c8.52,4.53,21.25,7.44,34.08,7.44,17.9,0,28.58-8.31,28.58-22.22,0-11.16-7.22-18.33-22.43-22-16.38-3.99-19.95-4.37-19.95-9.06,0-3.63,4.1-5.39,11-5.39,9.17,0,18.93,2.3,24.48,5.72l5.5-14.45C390.45,2.7,379.99,0,367.8,0h0Z"/></svg>