<?xml version="1.0" encoding="utf-8"?>
<!-- Generator: Adobe Illustrator 30.2.1, SVG Export Plug-In . SVG Version: 9.03 Build 0)  -->
<svg version="1.0"
	 id="Layer_1" xmlns:cc="http://creativecommons.org/ns#" xmlns:rdf="http://www.w3.org/1999/02/22-rdf-syntax-ns#" xmlns:dc="http://purl.org/dc/elements/1.1/"
	 xmlns="http://www.w3.org/2000/svg" xmlns:xlink="http://www.w3.org/1999/xlink" x="0px" y="0px" viewBox="0 0 787.5 172.1"
	 style="enable-background:new 0 0 787.5 172.1;" xml:space="preserve">
<style type="text/css">
	.st0{fill:#FFFFFF;}
</style>
<g>
	<path class="st0" d="M87.6,108.5l-5.5,1.4c-1.3,0.3-2.2,0.9-2.5,1.9c-0.1,0.2-0.1,0.4-0.1,0.6c0,1.2,0.9,2.2,2.1,2.4h0.1l5.6,1.5
		c10.6,2.8,19.4,11.8,19.4,22.7c0,1.4-0.2,2.9-0.5,4.4c-2,9.6-8.6,17.9-19.9,17.9c-0.4,0-0.7,0-1.1,0c-7.3-0.3-14.2-6.9-14.2-14.3
		c0-1.9,0.4-3.8,1.4-5.7c0.8-1.5,2.3-2.3,3.7-3c1.7-0.9,3.1-1.6,3.5-3.2c0.2-0.7,0.3-1.4,0.3-2.1c0-2.5-1.1-4.9-3.2-6.4
		c-1.1-0.7-2.2-1-3.2-1c-3,0-6,2.6-8.3,5.3c-3.1,3.7-4.3,7.6-4.3,11.5c0,6.5,3.5,13,7.8,18.3c5.7,7,14.8,10,23.8,10.1h0.5
		c13.3,0,26.4-6.7,31-19.5c1.2-3.3,1.8-6.8,1.8-10.3c0-5.1-1.3-10.2-4.1-14.7c-3.2-5.2-8.2-9.1-13.9-11.3l-1.7-0.6l1.8-0.4
		c8.3-1.8,16.1-5.9,22.4-11.7c9.5-8.6,15.2-20.7,15.8-33.5c0.3-2.2,0.4-4.4,0.4-6.5c0-29.6-25.4-51.7-53.5-59.6
		C86.6,0.9,80.1,0,73.5,0c-14.9,0-29.6,4.6-42,13.3C14.6,25.2,0,42.7,0,63.3c0,2.5,0.2,5,0.6,7.5c2.1,11.9,5.1,24.5,16.9,30.5
		c2.6,1.3,5.5,2.4,8.2,2.4c1.6,0,3.2-0.4,4.7-1.4c2.7-1.9,4.5-5.1,4.5-8.2c0-1.2-0.3-2.5-0.9-3.7c-1.8-3.5-6-4.3-9.9-4.8
		c-0.1,0-0.3,0-0.4,0c-0.6,0-1.1,0.1-1.8,0.2c-0.6,0.1-1.3,0.2-1.9,0.2c-0.4,0-0.8,0-1.3-0.2c-2.3-0.7-3.6-2.8-4.8-4.6
		c-0.3-0.5-0.6-0.9-0.9-1.4c-2.7-3.9-3.8-8.2-3.8-12.5c0-8.1,3.9-16.4,8-23.4c5-8.5,13.2-14.4,21.9-18.8c8.6-4.4,18.1-6.6,27.6-6.6
		c7.9,0,15.8,1.5,23.2,4.7c13.1,5.6,25.5,14.7,30.3,28.8c1.6,4.8,2.5,9.9,2.5,14.9c0,8.5-2.4,16.9-7.5,24.1
		C108.7,100.4,105.3,103.2,87.6,108.5"/>
	<path class="st0" d="M43.2,40l-13.5,5.4c-0.8,0.3-1.4,0.9-1.4,1.6c0,0.1,0,0.2,0.1,0.4c0.2,0.6,0.7,1,1.3,1c0.1,0,0.3,0,0.4,0
		l0.1,0h0.1l4-0.1h0.1c1.7,0,3,1.4,3.9,2.4c0,0.1,0.1,0.1,0.1,0.1c1.4,1.5,2.5,3.5,2.5,5.7l0.3,95.8c0,2.8-1.2,5.3-2.8,7.2
		c-1.4,1.7-3.1,3.1-5.1,3.9l-0.1,0h0l-5,1.2c-1,0.2-1.8,0.8-1.8,1.6c0,0.9,0.7,1.6,1.8,1.6l27,0.1c0.9,0,1.6-0.6,2.3-1.5
		c0.6-0.8,0.7-1.8,0.7-3l0.1-125.6c0-1.1-0.1-2-0.7-2.6c-0.4-0.4-0.9-0.4-1.6-0.4h-0.2h-0.2H55L43.2,40L43.2,40z"/>
	<path class="st0" d="M178.9,110.7l29.5-0.2h0.1c1.2,0,2.2,0,2.9-0.7c0.4-0.4,0.5-1,0.6-1.8c0-0.3,0-0.6,0.1-0.9c0.2-1,0.3-2,0.3-3
		c0-3.2-1-6.5-2-9.7c-4.8-14.1-18.4-23-33.1-23h-0.3c-12.6,0.1-23.1,7.9-30.4,17.8c-6.7,9-8.5,20.2-8.5,31.3v0.7
		c0.1,16.3,3.6,33.6,17.6,43c6.3,4.3,13.6,7.1,21.3,7.1c13,0,23.9-8.3,31.1-18.9c3.1-4.5,5.8-9.3,6.4-14.7l0.3-2.3v-0.1
		c0-0.1,0.1-0.2,0.1-0.4c0-0.5-0.3-1-0.8-1.3c-0.2-0.1-0.4-0.2-0.6-0.2c-0.6,0-1.2,0.4-1.6,1l-1.6,2.2c-2.2,3.9-5.1,7.4-8.6,10.1
		c-5.3,4.1-11.6,7.3-18.4,7.3c-1,0-1.9-0.1-2.9-0.2c-7.7-1.1-13.6-6.3-18.2-11.9c-3.3-4-5.7-8.7-7.2-13.8c-1-3.5-1.5-7.1-1.5-10.7
		c0-2.1,0.2-4.2,0.6-6.3l0.1-0.4h0.4L178.9,110.7L178.9,110.7z M173.7,102l-16.4-0.1c-1,0-2.2-0.3-2.7-1.4c-0.1-0.3-0.2-0.6-0.2-0.8
		s0-0.5,0.1-0.7c0-0.2,0.1-0.4,0.1-0.6c0.4-8,5.3-15.3,13.1-17.9c2-0.7,4.1-1,6.1-1c2.3,0,4.7,0.5,6.9,1.4
		c6.3,2.7,10.5,8.9,10.5,15.7c0,0.7-0.1,1.5-0.2,2.2c0,0.2,0,0.4,0,0.6c0,0.6,0,1.4-0.6,1.9c-0.5,0.5-1.2,0.6-1.7,0.6h-0.3h-0.3
		h-0.4l-0.1,0L173.7,102L173.7,102z"/>
	<path class="st0" d="M258.8,111.5l29.5-0.2h0.1c1.2,0,2.2,0,2.9-0.7c0.4-0.4,0.5-1,0.6-1.8c0-0.3,0.1-0.6,0.1-0.9
		c0.2-1,0.3-2,0.3-3c0-3.2-1-6.5-2-9.7c-4.8-14.1-18.4-23-33.1-23h-0.3c-12.6,0.1-23.1,7.9-30.4,17.8c-6.7,9-8.5,20.2-8.5,31.3v0.7
		c0.1,16.3,3.6,33.6,17.6,43c6.3,4.3,13.6,7.1,21.3,7.1c13,0,23.9-8.3,31.1-18.9c3.1-4.5,5.8-9.3,6.4-14.7l0.3-2.3v-0.1
		c0-0.1,0.1-0.2,0.1-0.4c0-0.5-0.3-1-0.8-1.3c-0.2-0.1-0.4-0.2-0.6-0.2c-0.6,0-1.2,0.4-1.6,1l-1.6,2.2c-2.2,3.9-5.1,7.4-8.6,10.1
		c-5.3,4.1-11.6,7.3-18.4,7.3c-1,0-1.9-0.1-2.9-0.2c-7.7-1.1-13.6-6.3-18.2-11.9c-3.3-4-5.7-8.7-7.2-13.8c-1-3.5-1.5-7.1-1.5-10.7
		c0-2.1,0.2-4.2,0.6-6.3l0.1-0.5h0.4L258.8,111.5L258.8,111.5z M254.1,102.2l-16.4-0.1c-1,0-2.2-0.3-2.7-1.4
		c-0.1-0.3-0.2-0.6-0.2-0.8c0-0.2,0-0.5,0-0.7c0-0.2,0.1-0.4,0.1-0.6c0.4-8,5.3-15.3,13.1-17.9c2-0.7,4.1-1,6.1-1
		c2.3,0,4.7,0.4,6.9,1.4c6.3,2.7,10.5,8.9,10.5,15.7c0,0.7-0.1,1.5-0.2,2.2c0,0.2,0,0.4,0,0.6c0,0.6,0,1.4-0.6,1.9
		c-0.5,0.5-1.2,0.6-1.7,0.6h-0.3h-0.3h-0.4l-0.1,0L254.1,102.2L254.1,102.2z"/>
	<path class="st0" d="M337.6,71.7c-11.3,1.9-21.5,7.7-28.7,16.5c-7.1,8.5-10.9,19.2-10.9,30.2c0,1,0,2.1,0.1,3.1
		c0,11.6,3.2,23,9.9,32.3c3,4.2,6.2,8,10.4,10.9c5.9,4.1,12.8,6.4,20,6.4h0.4c10.4-0.1,19.7-5.8,26.6-13.4
		c4.8-5.2,8.1-11.5,9.8-18.4l0.9-3.1c0.1-0.5,0.2-1,0.2-1.5c0-0.7-0.2-1.2-0.7-1.5c-0.3-0.2-0.7-0.3-1-0.3c-1,0-2,0.8-2,1.9v0.1
		l-0.1,0.1l-1.4,2.8c-1.6,3.1-3.6,6-6.2,8.4c-5.2,4.8-12,7.2-18.9,7.2c-1.3,0-2.7-0.1-4-0.3c-7.7-1-14.2-5.6-19.2-11.3
		c-6.4-7.5-7.6-17.6-7.6-27v-1.7c0.1-8,0.6-16.6,5.6-23.5c3.3-4.6,7.3-9.3,13.2-10.5c1.7-0.4,3.5-0.6,5.3-0.6c3,0,6.1,0.7,8.5,2.9
		c1.8,1.6,3,3.7,3.8,5.8c0.4,1,0.5,2.1,0.6,3.1c0.1,1.1,0.2,2,0.5,2.9c2,4.6,6.2,8.6,10.9,8.6c1.3,0,2.7-0.3,4.2-1.1
		c3.2-1.8,4.8-5.3,5.3-9c0-0.4,0-0.7,0-1.1c0-4.8-3.9-8.5-7.6-11.9c-0.2-0.2-0.5-0.4-0.7-0.6c-5.3-5-12.3-7.6-19.4-7.6
		C342.9,70.6,340.3,71,337.6,71.7L337.6,71.7L337.6,71.7z"/>
	<path class="st0" d="M382,105.4l-0.4,50.7c0,2-1.1,3.7-2.2,5c-1.1,1.3-2.4,2.3-3.9,2.9l-0.1,0h-0.1l-4.9,0.8
		c-1.1,0.2-1.8,0.7-1.8,1.4c0,0.9,0.7,1.5,1.6,1.5l40.3,0.3c0.9,0,1.5-0.7,1.6-1.5v-0.1c0-0.9-0.7-1.6-1.6-1.6h-0.1l-3.4-0.4
		c-2.4-0.3-4-2.3-5.2-3.9c-1-1.4-1.8-2.9-2.1-4.6l0-0.1v-0.1l-0.4-56.9v-0.1c0-0.6,0.1-1.3,0.3-1.9c0.2-0.6,0.7-1.1,1.1-1.6
		c0.2-0.2,0.3-0.3,0.4-0.5c3.3-4.1,7.6-7.6,12.8-9c2.5-0.7,5.1-1.3,7.8-1.3c2.3,0,4.7,0.5,6.8,1.6c5.2,2.8,8.3,8.4,8.4,14.2
		l0.5,55.5v0.1c0,1.9-0.5,3.8-1.7,5.2c-1,1.2-2.3,1.9-3.6,2.3l-4,1.4c-0.1,0.1-0.2,0.1-0.4,0.1c-1.3,0.4-2.1,0.8-2.1,1.6v0.1
		c0.1,1,0.9,1.6,2,1.6l39.1,0c1.1,0,2-0.7,2.2-1.7v-0.2c0-1-0.9-1.9-1.9-1.9h-0.1l-0.1,0l-0.1,0l-3.3-0.7c-1.9-0.4-3.4-1.5-4.5-2.9
		c-1.2-1.4-2.2-3.1-2.2-5.1l-0.5-52.1c-0.1-5-0.8-10-2.7-14.6c-2.7-6.4-6.5-12.5-12.8-15.6c-3.2-1.6-6.8-2.3-10.4-2.3
		c-2.1,0-4.3,0.2-6.4,0.6c-4.4,0.9-8.4,3.2-12.3,5.5c-4,2.3-7.7,5.1-11.1,8.3l-0.9,0.8v-1.2L398.9,30c0-0.9-0.5-1.7-1.2-2.2
		c-0.3-0.2-0.8-0.3-1.2-0.3c-0.4,0-0.7,0.1-1.1,0.2L370,38.6c-1,0.4-1.7,1.1-1.7,1.8c0,0.1,0,0.3,0.1,0.4c0.2,0.6,0.8,1,1.4,1
		c0.3,0,0.6-0.1,0.9-0.3l0.1-0.1h0.1l3.2-0.2c0.1,0,0.2,0,0.3,0c1.5,0,2.8,0.7,4,1.5c1.6,1.2,2,3,2.4,4.6c0.2,0.7,0.4,1.5,0.6,2.1
		l0,0.1v0.1L382,105.4L382,105.4z"/>
	<path class="st0" d="M501.3,72.1c-11.3,1.9-21.5,7.7-28.7,16.5c-7.1,8.5-10.9,19.2-10.9,30.2c0,1,0,2.1,0.1,3.1
		c0,11.6,3.2,23,9.9,32.3c3,4.1,6.2,8,10.4,10.9c5.9,4.1,12.8,6.4,20,6.4h0.4c10.4-0.1,19.7-5.8,26.6-13.4
		c4.8-5.2,8.1-11.5,9.8-18.4l0.9-3.1c0.1-0.5,0.2-1,0.2-1.5c0-0.7-0.2-1.2-0.7-1.5c-0.3-0.2-0.7-0.3-1-0.3c-1,0-2,0.8-2,1.9v0.1
		l-0.1,0.1l-1.4,2.8c-1.6,3.1-3.6,6-6.2,8.4c-5.2,4.8-12,7.2-18.9,7.2c-1.3,0-2.7-0.1-4-0.3c-7.7-1-14.2-5.6-19.2-11.3
		c-6.4-7.5-7.6-17.6-7.6-27v-1.7c0.1-8,0.6-16.6,5.6-23.5c3.3-4.6,7.3-9.3,13.2-10.5c1.7-0.4,3.5-0.6,5.3-0.6c3,0,6.1,0.7,8.5,2.9
		c1.8,1.6,3,3.7,3.8,5.8c0.4,1,0.5,2.1,0.6,3.1c0.1,1.1,0.2,2,0.5,2.9c2,4.6,6.2,8.6,10.9,8.6c1.3,0,2.7-0.3,4.1-1.1
		c3.2-1.8,4.8-5.3,5.3-9c0.1-0.4,0.1-0.7,0.1-1.1c0-4.8-3.9-8.5-7.6-11.9c-0.2-0.2-0.5-0.4-0.7-0.6c-5.3-5-12.3-7.6-19.4-7.6
		C506.6,71,503.9,71.3,501.3,72.1L501.3,72.1L501.3,72.1z"/>
	<path class="st0" d="M553,75.9l-12,5.1c-1.2,0.5-2.2,1.1-2.2,1.9c0,0.1,0,0.2,0,0.2c0.2,0.9,0.9,1.4,1.7,1.4c0.3,0,0.6-0.1,0.9-0.2
		l0.1-0.1h0.2l3.9,0.2c2.1,0.1,4,1.1,5.4,2.5c2,1.9,2.8,4.5,2.8,7.1l0.1,64.3c0,2.1-1.7,3.6-3.1,4.6c-1.3,1-2.9,1.5-4.5,1.6
		l-4.7,0.6c-1.5,0.2-2.7,0.7-2.7,1.6v0.2c0.1,0.9,0.9,1.5,1.8,1.5c0.2,0,0.4,0,0.6-0.1l0.1,0h0.1l43.5,0.1c0.3,0,0.6,0,0.9-0.1
		c0.9-0.2,1.5-0.7,1.6-1.5v-0.2c0-1-0.9-1.9-1.9-1.9c-0.2,0-0.5,0.1-0.7,0.2l-0.1,0.1l-0.1,0l-4.8-0.6c-2-0.2-3.8-1.2-5.2-2.5
		c-1.8-1.6-3.2-4-3.2-6.5l-0.2-60.1c0-1.9,1.2-3.3,2.2-4.6c0.1-0.2,0.3-0.4,0.4-0.6c1.1-1.4,2.4-2.8,4-3.8c0.1-0.1,0.2-0.1,0.3-0.2
		c1-0.6,2.2-1.3,3.6-1.3h0.3c1.1,0.1,2,0.7,2.8,1.2c0.4,0.2,0.7,0.5,1.1,0.7c1,0.5,2,1.3,2.9,1.9c1.8,1.4,3.4,2.6,5.5,2.6h0.3
		c3.6,0,7-1.8,8.8-4.9c0.9-1.5,1.3-3,1.3-4.6c0-4.1-2.9-8.2-6.8-10.3c-1.6-0.9-3.4-1.3-5.2-1.3c-2.5,0-5.1,0.7-7.5,1.5
		c-2.8,1-5.2,2.8-7.6,4.7c-0.2,0.2-0.5,0.3-0.7,0.5c-2,1.6-3.8,3.2-5.5,5l-0.9,0.9l0-1.3l-0.1-7.3c0-1.3-0.6-2.5-1.7-3.2
		c-0.4-0.2-0.8-0.3-1.3-0.3c-0.4,0-0.8,0.1-1.2,0.1c-0.3,0.1-0.7,0.1-1,0.1L553,75.9L553,75.9z"/>
	<path class="st0" d="M669.2,122.5l-0.1-28.6c0-4.8-1.1-9.7-3.9-13.6c-3.5-4.9-9-7.7-15-8.9c-3.9-0.8-8.3-1.3-12.4-1.3
		c-4,0-7.8,0.4-10.7,1.4c-7.9,2.6-15.9,6.2-19.3,13.9c0,0.1-0.1,0.2-0.1,0.3c-1.1,2.4-2.2,4.9-2.2,7.3c0,0.6,0.1,1.1,0.2,1.7
		c1,4.5,3.8,8.7,8.4,8.7h0.3c4.4-0.2,7-4.3,8.1-8.6c0.1-0.4,0.1-0.8,0.1-1.2c0-0.7-0.1-1.5-0.2-2.3c-0.1-0.8-0.3-1.6-0.3-2.5
		c0-0.3,0-0.6,0.1-0.9c0.2-1.8,0.5-3.9,1.4-5.7c2.5-4.8,7.8-6.5,12.8-6.7c0.2,0,0.4,0,0.6,0c4.4,0,8.8,1.6,11.8,5.1
		c2.3,2.7,3.7,6,3.7,9.6v0.1l-0.1,16.9l-33.1,13.2c-4.8,1.9-9.3,4.5-12.6,8.5c-4,4.9-6.4,11-6.4,17.1c0,3.1,0.6,6.2,1.9,9.2
		c3.6,8.4,11.4,14,20.5,14.8c0.7,0.1,1.4,0.1,2.2,0.1c8.6,0,16.6-4.4,21.1-11.9c2.2-3.5,3.3-7.6,3.7-11.8c0.1-1.6,0.3-3.2,0.3-4.8
		c0-2.6-0.4-5.2-1.8-7.6c-1.5-2.5-4.5-4.9-7.2-4.9c-1.2,0-2.4,0.5-3.4,1.6c-1,1.1-1.5,2.5-1.5,3.9c0,1.5,0.5,3.1,1.5,4.4
		c0.5,0.6,1.2,1,2.1,1.4c0.8,0.3,1.8,0.8,2.5,1.6c1.2,1.6,1.8,3.5,1.8,5.4c0,0.1,0,0.3,0,0.4c-0.1,2.5-1.4,4.7-3,6.4
		c-2.3,2.6-5.6,3.8-8.9,3.8c-1,0-2.1-0.1-3.1-0.4c-4.8-1.1-8-5.1-9.8-9.4c-0.9-2.1-1.3-4.3-1.3-6.5c0-3.1,0.8-6.1,2.2-9
		c2.1-4.2,5.6-7.6,10-9.5l0.1,0l22.7-7.8l0.2,41c0,4.1,0.6,8.3,3.5,11.2c2.6,2.6,6.4,3.6,10.2,3.6c4.4,0,8.7-2,11.7-5.4l4.7-5.3
		c0.2-0.2,0.4-0.4,0.6-0.6c0.9-1,1.8-1.9,1.8-2.7c0-0.3-0.1-0.6-0.5-1c-0.5-0.5-1.1-0.8-1.8-0.8c-0.8,0-1.6,0.4-2.1,1.2l-0.1,0.1
		l-0.1,0.1l-4.6,2c-0.5,0.2-1,0.3-1.5,0.3c-1.2,0-2.3-0.5-3.2-1.2c-1.4-1-1.6-2.6-1.8-3.9c-0.1-0.5-0.2-1-0.3-1.5l0-0.1v-0.1
		L669.2,122.5L669.2,122.5z"/>
	<path class="st0" d="M696,117.5l-0.1,40.5c0,1.5,0,3.4-1.2,4.8c-0.9,1.1-2.2,1.9-3.6,2.1l-2.7,0.4c-1.5,0.2-2.5,0.5-2.5,1.5
		c0,1,0.7,1.7,1.6,1.7c0.2,0,0.4,0,0.6-0.1l0.1-0.1h0.1l33.8,0.2c0.3,0,0.6-0.1,0.9-0.1c0.9-0.2,1.6-0.8,1.6-1.7l0-0.1
		c0-1-0.9-1.8-1.9-1.8c-0.2,0-0.3,0-0.5,0.1l-0.1,0l-0.2,0l-2.9-0.8c-1.7-0.5-3.1-1.4-4.2-2.7c-1.2-1.3-2.1-3-2.1-4.9l-0.3-70.1
		c0-0.3,0-0.5,0-0.8c0-0.3-0.1-0.6-0.1-1c0-0.7,0.1-1.6,0.7-2.3c0.8-0.9,1.9-1.3,3-1.3l26.5,0c1.2,0,2.3,0.6,3.1,1.5
		c0.6,0.8,1,1.7,1,2.7c0,0.4,0,0.8-0.2,1.1l0.1,61c0,6,0.5,12.1,4.3,16.7c3.6,4.3,8.8,7.2,14.5,7.2h0.2c5.5,0,10.3-2.9,14.5-6.6
		c1.8-1.6,3.4-3.5,4.8-5.6l1.7-2.4c0.5-0.7,1-1.6,1-2.3c0-0.4-0.1-0.7-0.6-1c-0.3-0.2-0.6-0.2-0.9-0.2c-0.6,0-1.3,0.4-1.5,1
		l-0.1,0.1l-0.1,0.1l-2.1,1.8c0,0-0.1,0.1-0.1,0.1c-0.8,0.7-1.7,1.5-2.7,2c-1.5,0.7-3,1-4.6,1c-1.2,0-2.4-0.2-3.6-0.6
		c-2.7-0.8-4.9-2.6-6.5-4.9c-1.6-2.3-2.1-5.1-2.1-7.9l-0.2-60c0-0.3-0.1-0.7-0.1-1.1c-0.1-0.4-0.1-0.9-0.1-1.4
		c0-0.6,0.2-1.3,0.7-1.9c0.7-0.7,1.7-1,2.7-1l12.4-0.1c2.1,0,3.9-1.5,3.9-3.6c0-2-1.6-3.5-3.6-3.5c-0.2,0-0.3,0-0.5,0.1H778l-11,0
		h-0.3h-0.3c-0.8,0-1.7,0-2.4-0.6c-1-0.7-1.7-1.8-1.7-3.1c0-0.2,0-0.3,0-0.4l-0.1-19c0-1.4-0.3-2.7-1.4-3c-0.2,0-0.3-0.1-0.4-0.1
		c-0.7,0-1.1,0.7-1.6,1.9c-0.2,0.5-0.4,1-0.7,1.4c-0.7,1-1.1,2.3-1.4,3.5c-0.3,1-0.6,2-1,2.9c-1.8,3.5-4,6.9-7,9.5
		c-3.2,2.8-7.1,4.6-11,5.7c-3.1,0.9-6.3,1.4-9.6,1.4h-0.4l-10.9-0.1c-1.2,0-2.6-0.1-3.5-1.1c-0.7-0.7-1.1-1.8-1.1-2.8
		c0-0.2,0-0.3,0.1-0.5l0-18.8c0-2.4,0.7-4.7,1.8-6.8c1.4-2.5,3.4-5,6.4-6c0.9-0.3,1.8-0.5,2.7-0.5c2.7,0,5.2,1.2,7.5,2.4
		c2.2,1.2,3.9,3,5.5,4.7c0.8,0.9,1.4,1.9,1.9,2.9c0.7,1.3,1.4,2.5,2.5,3.3c2,1.4,4.5,2.4,6.8,2.4c1.6,0,3.3-0.5,4.7-1.6
		c2-1.5,2.7-3.7,2.7-6.1c0-1.9-0.5-4-1.3-5.8c-1.3-3.1-4.2-5-7.1-6.8c-0.1-0.1-0.2-0.1-0.2-0.1c-4.3-2.7-9.4-3.8-14.4-3.8
		c-1.7,0-3.4,0.1-5.1,0.3c-8.4,1-16.1,5-21.5,11.4c-3.6,4.2-5.7,9.4-7.2,14.7c-0.7,2.6-0.9,5.3-1,8c-0.1,2.2-0.2,4.5-0.6,6.7
		c-0.1,0.3-0.1,0.6-0.1,0.9c-0.1,0.6-0.1,1.5-0.6,2.1c-0.7,0.8-1.6,1.2-2.6,1.2c-0.2,0-0.5,0-0.7-0.1l-7.1,0.1
		c-1.9,0.1-3.5,1.5-3.5,3.3v0c0,1.9,1.5,3.5,3.4,3.5h6.4c1.1,0,2.5,0,3.5,1c1.1,1.1,1.1,2.7,1.1,3.8v0.1L696,117.5L696,117.5z"/>
</g>
</svg>
