<?xml version="1.0" encoding="UTF-8"?><svg id="Layer_1" xmlns="http://www.w3.org/2000/svg" viewBox="0 0 241.75 314.8"><defs><style>.cls-1{fill:#fff;fill-rule:evenodd;}</style></defs><path class="cls-1" d="M0,0v82.8h241.67v8.88h-98.85l-19.41,11.79,10.14,14.86c.93,2.86,2.13,5.85-2.35,6h-21.16c-2.79-1.21-3.14-3.48-1.05-6.79l10.39-14.18-18.63-11.68H0v89.1c.6,32.07,76.85,99.8,121.09,134.02v-.4l.23.27c44.24-34.22,119.83-101.82,120.43-133.89V0H0ZM75.77,61.55c-1.09,2.25-2.68,4.02-4.59,5.32-1.19.83-3.01,1.4-5.44,1.78-3.23.49-5.38.74-6.42.74h-27.51v-33.95l9.41-9.55-8.89-.1h-2.43l-8.76-10.67h11.18s29.08.01,29.08.01c4.47,0,7.95,1.29,10.32,3.89,2.33,2.6,3.57,5.81,3.57,9.62,0,3.22-.89,5.95-2.57,8.25-1.1,1.53-2.83,2.73-4.99,3.63,3.31.94,5.81,2.55,7.37,4.81,1.53,2.31,2.33,5.18,2.33,8.63,0,2.81-.58,5.32-1.66,7.59ZM126.93,25.98h-25.93v8.62h25.93v11.07h-25.93v10.7h25.93v12.28h-39.66V19.93l5.99-5.54h33.67v11.59ZM179.48,68.13h-40.28V19.64l6.24-5.77h7.45v40.9h26.59v13.36ZM230.58,68.13h-40.29V19.64l6.24-5.77h7.45v40.9h26.6v13.36ZM75.44,185.75l-61.33-.36-5.09-5.52,93.39-29.58c4.05-1.13,3.29-3.05-.74-2.96h-26.6c-5.99-.14-11.18-1.53-17-4.8l-45.44-22.54-3.67-7.6,91.99,17.36c9.66,1.53,16.32,8.91,16.24,14.99l.02,21.89-19.6,13.58c-6.69,4.13-14.09,5.95-22.17,5.54ZM135.55,191.87l-6.79,4.96c-1.81,1.43-1.45,2.94-.13,3.79l4.31,3.13-2.09,2.62c-1.75,2.26-2.86,3.05-2.87,8.88l-.39,65.7c.16,14.77-3.93,26.31-5.36,31.35h-1.74c-1.43-5.04-5.52-16.58-5.36-31.35l-.39-65.7c0-5.83-1.13-6.62-2.87-8.88l-2.09-2.62,4.31-3.13c1.32-.85,1.68-2.36-.13-3.79l-6.79-4.96c-1.48-1.06-2.56-2.23-.27-4.31l14.41-11.82v-.07s.05.03.05.03l.04-.03.04.1,14.37,11.79c2.3,2.08,1.22,3.25-.26,4.31ZM139.24,150.29l93.38,29.58-5.08,5.52-61.33.36c-8.08.41-15.48-1.41-22.17-5.54l-19.6-13.58.02-21.89c-.08-6.08,6.58-13.46,16.23-14.99l92-17.36-3.67,7.6-45.45,22.54c-5.81,3.27-11,4.66-16.99,4.8h-26.6c-4.04-.09-4.79,1.83-.74,2.96ZM56.31,46.74h-10.69v11h10.73c2.46,0,4.22-.52,5.21-1.56,1-1,1.52-2.37,1.52-4.11,0-1.59-.52-2.88-1.48-3.88-1-.97-2.79-1.45-5.29-1.45ZM59.96,35.04c.83-.89,1.29-2.18,1.29-3.88,0-1.59-.46-2.81-1.29-3.7-.87-.9-2.41-1.33-4.6-1.33h-9.74v10.29h9.65c2.24,0,3.82-.45,4.69-1.38Z"/></svg>