<?xml version="1.0" encoding="UTF-8"?><svg id="Art" xmlns="http://www.w3.org/2000/svg" viewBox="0 0 447.33 262.08"><defs><style>.cls-1{fill:#fff;}</style></defs><path id="Wordmark" class="cls-1" d="M.17,261.07h24.5c14.69,0,23.16-6.71,23.16-16.62,0-7.3-5.37-12.59-14.43-14.1,7.38-1.84,11.75-6.63,11.75-13.09,0-8.89-8.05-14.94-21.99-14.94H0c2.18,3.69,2.94,10.49,2.94,17.45v23.83c0,6.97-.67,13.85-2.77,17.45h0ZM22.23,207.62c6.8,0,10.74,4.03,10.74,10.24s-3.94,10.32-10.83,10.32h-6.97v-20.56h7.05ZM24.08,233.38c7.13,0,11.5,4.28,11.5,11.33s-4.45,11.33-11.67,11.33h-8.72v-22.66h8.89ZM74.68,261.99c12.25,0,21.4-9.32,21.4-22.15s-9.06-21.9-21.4-21.9-21.48,9.23-21.48,22.15,9.15,21.9,21.48,21.9ZM74.76,257.13c-5.79,0-9.65-5.96-9.65-17.03s3.86-17.12,9.4-17.12,9.65,5.87,9.65,17.12-3.78,17.03-9.4,17.03ZM103.63,232.79v14.01c0,4.86-.33,11.08-1.68,14.26h14.68c-1.09-3.02-1.43-9.32-1.43-13.93v-17.87c2.18-2.6,4.7-4.53,7.81-4.53,3.61,0,6.29,2.6,6.29,7.64v14.77c0,4.62-.33,10.91-1.51,13.93h14.69c-1.26-3.19-1.6-9.4-1.6-14.26v-15.52c0-.76,0-1.51-.08-2.18,2.1-2.6,4.7-4.36,7.81-4.36,3.69,0,6.38,2.6,6.38,7.64v14.77c0,4.62-.33,10.91-1.51,13.93h14.77c-1.34-3.19-1.68-9.4-1.68-14.26v-15.44c0-8.48-5.03-13.43-12.59-13.43-6.04,0-10.91,3.35-13.76,8.22-1.68-5.29-5.87-8.22-11.67-8.22s-10.41,3.19-13.34,7.89v-7.38l-14.1,2.01c1.84,2.77,2.52,7.55,2.52,12.34ZM176.8,214.75v46.74l8.31-2.77c3.19,2.1,7.13,3.27,11.5,3.27,11.67,0,21.06-9.15,21.06-23.16,0-12.67-7.47-20.89-17.29-20.89-4.95,0-9.32,2.6-12,7.05v-24.84l-14.1,2.26c1.84,2.77,2.51,7.55,2.51,12.34h0ZM196.27,224.32c5.62,0,9.56,5.87,9.56,15.61,0,11.08-4.53,17.29-11.08,17.29-2.18,0-4.45-.76-6.38-2.1v-26.26c2.26-2.85,4.86-4.53,7.89-4.53h0ZM263.74,248.74v-30.38l-9.73,2.1c-2.85-1.6-6.38-2.52-10.16-2.52-11.58,0-20.89,9.23-20.89,23.16,0,12.59,7.47,20.89,17.29,20.89,4.87,0,9.23-2.6,11.92-6.97v6.04h13.59c-1.76-2.6-2.01-7.55-2.01-12.34h0ZM234.78,239.93c0-11,4.53-17.12,10.99-17.12,2.18,0,4.45.75,6.38,2.01v26.35c-2.18,2.85-4.87,4.45-7.89,4.45-5.62,0-9.48-5.87-9.48-15.69h0ZM274.22,246.81c0,4.86-.33,11.08-1.68,14.26h15.02c-1.34-3.19-1.76-9.4-1.76-14.18v-13.76c2.52-4.19,5.54-6.71,9.57-6.71,2.1,0,3.94.42,5.7,1.26l-.5-9.32c-.67-.33-2.02-.59-3.35-.59-4.53,0-8.98,3.61-11.41,11.75v-11.08l-14.1,2.01c1.85,2.77,2.52,7.55,2.52,12.34v14.01h0ZM331.87,254.44v6.63h13.68c-1.76-2.6-2.01-7.55-2.01-12.34v-48.58l-14.18,2.26c1.84,2.77,2.51,7.55,2.51,12.34v4.87c-2.51-1.09-5.37-1.68-8.48-1.68-11.41,0-20.98,8.81-20.98,22.32s7.38,21.73,16.78,21.73c5.2,0,9.99-2.85,12.67-7.55h0ZM331.87,251c-2.26,3.1-5.03,4.7-8.05,4.7-5.7,0-9.57-5.87-9.57-15.86,0-10.99,4.62-17.03,11.08-17.03,2.27,0,4.53.67,6.54,1.93v26.26ZM359.9,213.49c3.86,0,6.8-2.94,6.8-6.8s-2.94-6.71-6.8-6.71-6.88,3.02-6.88,6.71,2.85,6.8,6.88,6.8ZM354.19,232.79v13.43c0,4.87-.33,11.66-1.68,14.85h14.94c-1.34-3.19-1.68-9.99-1.68-14.85v-27.78l-14.1,2.01c1.84,2.77,2.52,7.55,2.52,12.34h0ZM395.65,262.08c5.37,0,10.91-1.68,14.35-4.11l.76-5.62c-3.86,2.77-8.22,4.28-12.51,4.28-7.72,0-12.84-5.79-13.17-16.53h27.94c-.08-13.43-7.38-22.15-19.47-22.15s-20.22,9.65-20.22,21.99c0,13.09,9.06,22.15,22.32,22.15h0ZM393.63,222.81c4.45,0,7.81,3.78,8.56,12.59h-17.03c.59-8.06,3.78-12.59,8.48-12.59ZM420.48,246.81c0,4.86-.33,11.08-1.68,14.26h15.02c-1.34-3.19-1.76-9.4-1.76-14.18v-13.76c2.52-4.19,5.54-6.71,9.57-6.71,2.1,0,3.94.42,5.7,1.26l-.5-9.32c-.67-.33-2.02-.59-3.35-.59-4.53,0-8.98,3.61-11.41,11.75v-11.08l-14.1,2.01c1.84,2.77,2.52,7.55,2.52,12.34v14.01h0Z"/><path id="Symbol" class="cls-1" d="M142.08,160.99l13.05-13.05c13.05-13.05,26.11-15.23,43.51-15.23h35.9c17.4,0,26.54-1.09,40.68-10.88h1.74l-23.93,23.93c-13.05,13.05-26.11,15.23-43.51,15.23h-67.44ZM179.07,41.34l13.05,13.05c13.05,13.05,26.11,15.23,43.51,15.23h35.9c17.41,0,26.54,1.09,40.68,10.88-14.14,9.79-23.28,10.88-40.68,10.88h-35.9c-17.4,0-30.46,2.18-43.51,15.23l-13.05,13.05h67.44c17.4,0,30.46-2.18,43.51-15.23l23.93-23.93-23.93-23.93c-13.05-13.05-26.11-15.23-43.51-15.23h-67.44ZM142.08,0l13.05,13.05c13.05,13.05,26.11,15.23,43.51,15.23h35.9c17.4,0,26.54,1.09,40.68,10.88h1.74l-23.93-23.93C239.99,2.18,226.93,0,209.53,0h-67.44Z"/></svg>