<?xml version="1.0" encoding="UTF-8"?>
<svg id="svg15546" xmlns="http://www.w3.org/2000/svg" version="1.1" viewBox="0 0 69.8 72.2">
  <!-- Generator: Adobe Illustrator 30.2.1, SVG Export Plug-In . SVG Version: 2.1.1 Build 1)  -->
  <defs>
    <style>
      .st0 {
        fill: #fff;
      }
    </style>
  </defs>
  <path id="path14942" class="st0" d="M14.6,39.1v-15.6h25.4l-9.2,9.2c-3.9,4-6.1,6.2-12.5,6.3h-3.7M30.2,54.7h15.6v-25.4l-9.2,9.2c-4,3.9-6.2,6.2-6.3,12.5v3.7"/>
  <path id="path14950" class="st0" d="M14.6,15.6V0h49.1l-9.2,9.2c-3.9,4-6.2,6.2-12.5,6.3H14.6M53.7,54.7h15.6V5.4l-9.2,9.3c-4.5,4.4-6.2,6-6.3,12.3v27.7"/>
  <path id="path14974" class="st0" d="M11.3,66.2c-.2,1-.6,2.3-2.2,2.9-.4.1-.9.2-1.4.2s-1.2-.2-1.6-.4c-.8-.4-1.6-1.1-2.2-2.3-.5-1-.7-2.5-.6-3.7,0-1.2.4-2.1.6-2.7.6-1.5,1.8-2.5,3.3-2.7,3.3-.2,4.1,2.1,4.2,3h3.3c0-.8-.3-3.1-2.6-4.7-1.5-1-3.2-1.2-4.4-1.2-4.3,0-6.3,2.5-7.2,5.6-.3.9-.4,2.3-.4,3,0,1.1.2,2.2.4,3,.9,3.4,3.6,5.9,7.1,5.9,2.2,0,3.9-.7,5-1.7,1.2-1,2.1-2.7,2.1-4.4h-3.3M17.8,64.2c0-.7,1-2.4,2.7-2.3,1.6,0,2.4,1.6,2.4,2.3h-5ZM26.2,66.7c0-1.5-.2-3.1-1.3-4.9-.8-1.2-2.3-2.4-4.8-2.4s-4.8.2-5.6,5c-.2.9-.1,1.8,0,2.5,0,.7.3,1.4.4,1.7.3.8,1.1,2.1,2.3,2.7.9.5,2.1.9,3.3.9,2.2,0,5-1.4,5.7-4.5h-3.3c-.2.6-.9,1.5-1.7,1.7-1.1.2-2.4,0-3.1-.9-.5-.6-.5-1.2-.5-1.7h8.7M47.7,71.8h3.2v-7.2c0-1.2.7-2.2,2.2-2.2s2,1.1,2,2.2v7.2h3.2v-8.1c0-2.2-1.7-4.2-4.2-4.2s-2.5.5-3.2,1.6h0v-1.3h-3.2v12M36.7,67.7c.1.8,1,3.3,2.9,4.1.8.3,2,.5,2.7.5s1.9-.1,2.8-.5c2.1-.8,2.6-2.7,2.6-3.9s-1.2-2.7-2.7-3.1l-4.1-1c-1.2-.3-.8-1.5-.3-1.8,1-.5,1.9-.4,2.6-.1,1.1.4,1.2,1.1,1.2,1.7h2.8c0-.9-.2-2.3-1.8-3.3-1.1-.7-2.2-1-3.5-.9-1.3,0-2.6.5-3.3,1-.8.6-1.4,1.5-1.4,3.1,0,1.1.9,2.6,2.6,3l3.8,1c1.8.5,1,2.8-1.4,2.5-1.7-.2-2.2-.9-2.5-2.2h-3.1M66.2,66.4c0,1.3-.3,2.9-2.2,3.2-1.4.2-2.3-.2-2.5-1-.3-1,.4-1.8,1.6-2,.7-.1,2.1-.5,3.1-1v.8ZM69.8,71.8s-.5-.6-.5-1v-7.1c0-1.7-1.2-3.2-2.3-3.7-.6-.3-1.8-.6-3.1-.6s-4.8.5-4.9,4.2h2.7c0-.8.5-1.8,2.1-1.8,1.5,0,2.1.7,2.3,1.2s-.2.9-.9,1.1c-.8.2-2.2.5-3,.7-3,.5-4,2.3-4.1,3.8,0,2.2,2.6,3.7,4.6,3.7,1.8,0,2.7-.7,3.4-1.8,0,.3,0,1.2.2,1.5h3.4M25.9,67.7c.1.8,1,3.3,2.9,4.1.8.3,2,.5,2.7.5s1.9-.1,2.8-.5c2.1-.8,2.6-2.7,2.6-3.9s-1.2-2.7-2.7-3.1l-4.1-1c-1.2-.3-.8-1.5-.3-1.8,1-.5,1.9-.4,2.6-.1,1.1.4,1.2,1.1,1.2,1.7h2.8c0-.9-.2-2.3-1.8-3.3-1.1-.7-2.2-1-3.5-.9-1.3,0-2.6.5-3.3,1-.8.6-1.4,1.5-1.4,3.1,0,1.1.9,2.6,2.6,3l3.8,1c1.8.5,1,2.8-1.4,2.5-1.7-.2-2.2-.9-2.5-2.2h-3.1"/>
</svg>