<?xml version="1.0" encoding="UTF-8"?><svg id="_Слой_1" xmlns="http://www.w3.org/2000/svg" viewBox="0 0 1000 207.61"><defs><style>.cls-1{fill:#fff;}</style></defs><g id="lockup"><g id="wordmark"><path id="S" class="cls-1" d="M922.15,69.2h69.04v-20.76h-69.05c-18.15,0-32.87,14.72-32.87,32.87s14.72,32.87,32.87,32.87h44.98c6.69,0,12.11,5.42,12.11,12.11s-5.42,12.11-12.11,12.11h-73.69s-12.97,20.76-12.97,20.76h86.66c18.16,0,32.87-14.72,32.87-32.87s-14.72-32.87-32.87-32.87h-44.98c-6.69,0-12.11-5.42-12.11-12.11s5.42-12.11,12.11-12.11Z"/><path id="U" class="cls-1" d="M837.37,48.44v64.5c0,14.06-11.4,25.47-25.47,25.47h-18.27c-14.06,0-25.47-11.4-25.47-25.47V48.44h-20.76s0,64.5,0,64.5c0,25.53,20.7,46.23,46.23,46.23h18.27c25.53,0,46.23-20.7,46.23-46.23V48.44h-20.76Z"/><path id="R" class="cls-1" d="M716.26,81.32c0-18.15-14.72-32.87-32.87-32.87h-77.85v20.76h77.86c6.69,0,12.11,5.42,12.11,12.11s-5.42,12.11-12.11,12.11h-77.86v65.74h20.76s0-44.98,0-44.98h38.2c4.96,0,9.58,2.56,12.21,6.77l23.88,38.21h24.48s-29.57-47.31-29.57-47.31c12.15-4.82,20.76-16.66,20.76-30.54Z"/><path id="R-2" class="cls-1" d="M574.38,81.32c0-18.15-14.72-32.87-32.87-32.87h-77.85v20.76h77.86c6.69,0,12.11,5.42,12.11,12.11s-5.42,12.11-12.11,12.11h-77.86v65.74h20.76s0-44.98,0-44.98h38.2c4.96,0,9.58,2.56,12.21,6.77l23.88,38.21h24.48s-29.57-47.32-29.57-47.32c12.15-4.82,20.76-16.66,20.76-30.53Z"/><rect id="I" class="cls-1" x="406.57" y="48.44" width="20.76" height="110.73"/><path id="C" class="cls-1" d="M305.74,69.2h64.5v-20.76s-64.5,0-64.5,0c-25.53,0-46.23,20.7-46.23,46.23v18.27c0,25.53,20.7,46.23,46.23,46.23h64.49v-20.76s-64.5,0-64.5,0c-14.06,0-25.47-11.4-25.47-25.47v-18.27c0-14.06,11.4-25.47,25.47-25.47Z"/></g><g id="bug"><path id="tm" class="cls-1" d="M197.94,183.59v6.65h-1.39v-6.65h-2.28v-1.14h5.89v1.14h-2.22ZM207.05,190.24c0-.76.06-6.14.06-6.14l-1.84,6.14h-1.27l-1.77-6.01v6.01h-1.33v-7.79h1.84l1.9,6.2,1.84-6.2h1.77v7.79h-1.2Z"/><path id="upper" class="cls-1" d="M117.85,6.23h55.01c10.04,0,18.18,8.14,18.18,18.18v93.93c0,.21-.01.41-.02.61l6.24,5.82V24.4c0-13.48-10.93-24.4-24.4-24.4h-84.59c-14.27,0-27.36,5.02-37.63,13.38l16.17,10.41c14.08-10.99,31.79-17.56,51.04-17.56Z"/><path id="main" class="cls-1" d="M228.42,159.48l-79.04-73.64c12.46-16.02,21.88-33.42,28.38-51.54,2.74-8.31,3.39-14.54.9-16.47-2.49-1.93-8.36.22-15.74,4.93-15.96,10.75-30.51,24.17-42.97,40.19L29.12,4.47c-5.05-3.25-11.58-3.08-16.45.44l-6.66,4.82L.51,13.71c-.75.54-.65,1.69.18,2.09l3.46,1.67c1.1.53,2.13,1.2,3.07,1.99l24.65,20.81c-2.1,6.1-3.29,12.61-3.29,19.42v74.8l6.23-8.01v-37.22c0-13.91,3.44-27,9.48-38.52l47.8,40.35c3.73,3.15,4.73,8.5,2.38,12.78l-24.13,43.98-29.88-14.27c-2.52-1.2-5.54-.49-7.25,1.71l-4.62,5.94v41.95c0,13.48,10.93,24.4,24.4,24.4h84.59c26.47,0,48.88-17.25,56.7-41.1l25,17.89c1,.71,1.9,1.55,2.68,2.48l2.48,2.95c.59.71,1.73.52,2.07-.33l5.53-13.95c2.22-5.59.78-11.96-3.62-16.06ZM139.41,68.29c-4.78-3.71-11.66-2.86-15.37,1.92l-19.02,25.79c-.38.52-1.12.62-1.63.22-.48-.37-.58-1.04-.25-1.55l19.62-29.24c6.55-9.76,18.04-18.85,27.69-11.35,9.65,7.51,3.66,20.88-4.18,29.63l-23.51,26.21c-.4.45-1.08.51-1.56.14-.51-.4-.59-1.13-.18-1.63l20.32-24.78c3.71-4.78,2.85-11.66-1.92-15.37ZM107.99,201.38h-55.01c-10.04,0-18.17-8.14-18.17-18.17v-35.58l24.38,18.97-13.54,20.06c-.4.59-.27,1.38.29,1.82.56.44,1.36.36,1.83-.17l16.11-18.06,29.65,23.06c.94.73,2.3.56,3.04-.38l4.03-5.18c1.71-2.2,1.66-5.3-.12-7.45l-21.19-25.45,36.7-34.21c3.57-3.33,9-3.68,12.97-.84l52.39,37.48c-13.95,26.24-41.56,44.12-73.36,44.12Z"/></g></g></svg>