<?xml version="1.0" encoding="UTF-8"?>
<svg id="Layer_1" xmlns="http://www.w3.org/2000/svg" version="1.1" viewBox="0 0 344 96">
  <!-- Generator: Adobe Illustrator 30.2.1, SVG Export Plug-In . SVG Version: 2.1.1 Build 1)  -->
  <defs>
    <style>
      .st0 {
        fill: #fff;
        fill-rule: evenodd;
      }
    </style>
  </defs>
  <path class="st0" d="M105.3,95.6l-7.4-34.2h-8.5l-22.8,34.2h8.8l16.5-25.1,2.4,11.6h-6.6l-4.5,6.8h12.6l1.4,6.7h8ZM190.5,95.6l-7.4-34.2h-8.5l-22.8,34.2h8.8l16.5-25.1,2.4,11.6h-6.6l-4.5,6.8h12.6l1.4,6.7h8ZM148.8,61.3l-10.2,34.2h8.5l10.1-34.2h-8.5ZM230.3,61.3l-10.2,34.2h8.5l10.1-34.2h-8.5ZM304.7,83.8l-9.9-22.5h-8.5l-10.2,34.2h8.5l6.7-22.6,9.8,22.6h8.5l10.2-34.2h-8.5l-6.7,22.5ZM225.4,61.3h-31.2l-2.1,7.1h11.4l-8,27.1h8.5l8-27.1h11.3l2.1-7.1ZM113.8,61.3h-8l7.4,34.2h8.5l22.8-34.2h-8.8l-16.5,25.1-5.3-25.1ZM267.2,78.5c-1.4,5.3-6.1,10.6-12.5,10.6s-8.6-4.3-7-10.7c1.7-6.4,7.1-10.6,12.5-10.6s8.8,3.6,7,10.7h0ZM260,61c-10,0-17.8,6.8-20.6,17.4-2.7,10.5,3.8,17.5,15.1,17.5s19-8.6,20.9-17.4c2.6-11.8-3.8-17.5-15.5-17.5ZM239.7,54l-1.4-6.6h-13.8l4.6-7h7.6l-2.6-12.8-17.4,26.4h-8.7l23.5-35.3h8.6l7.6,35.3h-8ZM137.5,54l-1.4-6.6h-13.8l4.6-7h7.6l-2.6-12.8-17.4,26.4h-8.7l23.5-35.3h8.6l7.6,35.3h-8ZM313.2,54l8.4-28.3h-11.9l2.1-7h32.2l-2.1,7h-11.8l-8.4,28.3h-8.5ZM192.3,54.5c-2.9,0-5.5-.6-7.7-1.8-2.2-1.2-3.7-3-4.4-5.2v-.2c0,0,6.6-3.5,6.6-3.5v.2c.5,1.1,1.4,2,2.6,2.8,1.2.8,2.6,1.2,4.2,1.2s3-.4,4.2-1.1c1.2-.7,1.9-1.6,2.1-2.8.2-1-.1-1.8-1-2.4-.9-.6-2.5-1.4-4.6-2.2-2.2-.9-4.1-1.7-5.5-2.4-1.4-.8-2.6-1.9-3.4-3.4-.8-1.5-1-3.4-.5-5.7.4-2.1,1.4-3.9,3-5.4,1.5-1.5,3.4-2.7,5.6-3.5,2.2-.8,4.5-1.2,6.8-1.2,3.1,0,5.7.6,7.7,1.7,2.1,1.1,3.4,2.8,4.1,5.1v.2s-6.6,3.5-6.6,3.5v-.2c-.5-1-1.3-1.9-2.4-2.7-1.1-.7-2.4-1.1-3.9-1.1s-2.8.4-3.9,1c-1.1.7-1.7,1.6-2,2.7-.2.8,0,1.4.4,1.9.5.6,1.1,1.1,1.9,1.4.8.4,2,.9,3.6,1.5,2.2.8,4,1.6,5.3,2.3,1.4.8,2.5,1.9,3.3,3.3.8,1.4,1,3.2.6,5.3-.7,3.2-2.5,5.8-5.4,7.7-2.9,1.9-6.4,2.8-10.6,2.8M160.6,54.5c-2.9,0-5.5-.6-7.7-1.8-2.2-1.2-3.7-3-4.4-5.2v-.2c0,0,6.6-3.5,6.6-3.5v.2c.5,1.1,1.4,2,2.6,2.8,1.2.8,2.6,1.2,4.2,1.2s3-.4,4.2-1.1c1.2-.7,1.9-1.6,2.1-2.8.2-1-.1-1.8-1-2.4-.9-.6-2.5-1.4-4.6-2.2-2.2-.9-4.1-1.7-5.5-2.4-1.4-.8-2.6-1.9-3.4-3.4-.8-1.5-1-3.4-.5-5.7.4-2.1,1.4-3.9,3-5.4,1.5-1.5,3.4-2.7,5.6-3.5,2.2-.8,4.5-1.2,6.8-1.2,3.1,0,5.7.6,7.7,1.7,2.1,1.1,3.4,2.8,4.1,5.1v.2s-6.6,3.5-6.6,3.5v-.2c-.5-1-1.3-1.9-2.4-2.7-1.1-.7-2.4-1.1-3.9-1.1s-2.8.4-3.9,1c-1.1.7-1.8,1.6-2,2.7-.2.8,0,1.4.4,1.9.5.6,1.1,1.1,1.9,1.4.8.4,2,.9,3.6,1.5,2.2.8,4,1.6,5.3,2.3,1.4.8,2.5,1.9,3.3,3.3.8,1.4,1,3.2.6,5.3-.7,3.2-2.5,5.8-5.4,7.7-2.9,1.9-6.4,2.8-10.6,2.8M101.1,36.3c-1.4,5.3-6.1,10.6-12.5,10.6h-6.5l6.3-21.2h5.8c6.5,0,8.7,3.3,6.8,10.6ZM96.9,18.6h-14.8l-10.5,35.3h16.2c16.2,0,20.4-12.7,21.6-17.7,1.6-6.6.1-10.8-2.1-13.5-2.1-2.5-4.9-4.2-10.5-4.2ZM302.4,18.7h-8.5l-10.5,35.3h22.8l2.1-7h-14.3l8.4-28.3ZM272.8,40.3c-.6,2.3-1.5,3.9-2.8,5.1-1.4,1.3-3.2,1.9-5.5,1.9s-3.7-.6-4.4-1.8c-.7-1.2-.8-2.9-.3-5l6.6-21.9h-8.5l-6.5,21.6c-1.2,4.7-.7,8.2,1.5,10.6,2.2,2.3,5.5,3.5,10,3.5s8.3-1.2,11.7-3.4c3.1-2.1,5.3-5.4,6.8-10.4l6.5-21.8h-8.5l-6.5,21.7ZM59.4.2C31.4,46.1.4,69.9.4,69.9c8.5,5.6,11.7,12.7,11.7,12.7l4.1-3.2c-1-1.9-3.7-6-8-9.5,8.3-7.4,26.2-24.8,44.6-51.2-1.7,14.7-2.4,34.6.6,50.3-7.1,2.7-25.2,12.5-31.8,26.6h6.3c10.2-17.8,30.9-23.4,30.9-23.4C52.5,35.1,59.4.2,59.4.2"/>
  <path class="st0" d="M36.4,53.6c.9-.9,3.4-1.2,4.7,0,1.4,1.3,1.1,2.9,0,4-1.4,1.6-6.7,5.4-8.1,6.2h-.9c-.3-.4-2.3-3.6-2.7-5.1-.4-1.6-.4-3.5,1.4-5,1.8-1.4,3.7-1.4,5.6-.2M45,65.9c1.5-.7,2.7-2.5,2.1-4.3-.6-1.7-2.6-1.8-4-1.3-2.6.9-7.9,4.3-8.8,5l-.3.9c.6.9,2.5,3.2,3.8,4.2,1.3,1,3.2,1.6,5.1.5,2-1.1,2.6-3.2,2.2-4.9M28.3,77.7c-.9.9-3.4,1.2-4.7,0-1.4-1.3-1.1-2.8,0-3.9,1.4-1.6,6.7-5.3,8.1-6.2h.9c.3.4,2.3,3.6,2.8,5,.4,1.6.4,3.5-1.4,4.9-1.8,1.4-3.8,1.4-5.6.2M19.7,65.4c-1.5.7-2.7,2.5-2.1,4.3.6,1.7,2.6,1.8,4,1.3,2.6-.9,7.9-4.3,8.8-5l.3-.9c-.6-.9-2.5-3.2-3.8-4.2-1.3-1-3.2-1.6-5.1-.5-2,1.1-2.6,3.2-2.2,4.9"/>
</svg>