<?xml version="1.0" encoding="UTF-8"?><svg id="_Слой_1" xmlns="http://www.w3.org/2000/svg" viewBox="0 0 1000 167.86"><defs><style>.cls-1{fill:#fff;}</style></defs><polygon class="cls-1" points="33.58 77.22 134.29 0 167.89 0 100.74 77.22 167.57 77.22 167.57 90.66 100.74 90.66 167.89 167.86 134.29 167.86 33.58 90.66 0 90.66 13.42 77.22 33.58 77.22"/><path class="cls-1" d="M819.29,62.45v12.68h60.12v17.69h-60.12v12.84h66.04v20.34h-90.05V41.96h90.02v20.49h-66.01ZM673.82,69.47c0,13.85-3.22,20.79-13.07,23.35,8.2,2.11,12.42,7.41,12.42,15.96v17.23h-23.98v-12.84c0-7.17-2.91-8.67-10.82-8.67h-43.37v21.51h-24.11V41.96h70.72c23.78,0,32.22,5.66,32.22,27.51M594.99,62.89v20.56h45.76c6.71,0,8.65-3.1,8.65-11.08,0-6.49-2.49-9.48-8.65-9.48h-45.76ZM1000,69.47c0,13.85-3.24,20.79-13.1,23.35,8.23,2.11,12.44,7.41,12.44,15.96v17.23h-23.99v-12.84c0-7.17-2.91-8.67-10.84-8.67h-43.33v21.51h-24.12V41.96h70.71c23.79,0,32.23,5.66,32.23,27.51M921.19,62.89v20.56h45.73c6.69,0,8.64-3.1,8.64-11.08,0-6.49-2.49-9.48-8.64-9.48h-45.73ZM673.17,126.01l45.32-84.05h32.31l44.48,84.05h-27.83l-7.99-14h-50.56l-8.11,14h-27.62ZM750.33,91.79l-16.09-29.71-15.75,29.71h31.85ZM536.89,99.18c0-4.49-2.6-7.39-6.61-7.39h-44.31v15.13h44.31c4.21,0,6.61-2.77,6.61-7.74M534.29,67.76c0-4.2-2.5-6.94-6.18-6.94h-42.14v13.86h42.14c4.02,0,6.18-2.43,6.18-6.92M461.96,126.01V41.96h70.8c17.62,0,26.15,7.66,26.15,23.48,0,9.02-3.66,14.55-11.55,17.78,9.94,1.76,14.28,7.98,14.28,20,0,16.19-7.79,22.79-25.2,22.79h-74.48ZM311.85,126.01V41.96h40.38l28.27,52.47,28.26-52.47h41.08v84.05h-24.05v-59.81h-1.01l-32.42,59.81h-23.73l-32.22-59.87h-.59v59.87h-23.97ZM233.83,62.45v12.68h60.15v17.69h-60.15v12.84h66.07v20.34h-90.06V41.96h90.04v20.49h-66.04Z"/></svg>