<?xml version="1.0" encoding="UTF-8"?><svg id="svg367" xmlns="http://www.w3.org/2000/svg" viewBox="0 0 1000 444.87"><defs><style>.cls-1{fill:#fff;}</style></defs><path id="path1296" class="cls-1" d="M752.45,339.59c-21.4,0-38.18,11.45-38.18,26.07,0,7.44,5.39,13.06,12.53,13.06,6.48.07,11.81-5.1,11.92-11.58.14-3.52-1.72-6.82-4.81-8.53-1.38-.86-2.85-1.57-4.39-2.1,0,0,2.36-4.53,5.88-6.71,4.76-2.88,10.23-4.36,15.79-4.26,15.03,0,19.61,5.71,19.61,24.48l-.06,13.21-19.1,3.87c-27.32,5.29-41.76,16.77-41.76,33.15,0,14.94,10.87,24.6,27.75,24.6,15.02,0,26.47-7.07,33.31-20.5,1.21,14.87,6.7,20.5,19.44,20.5,14.66,0,21.49-9.07,21.49-28.59v-2.76h-5.88v.86c-.21,15.41-3.22,22.23-9.76,22.23-2.72,0-4.15-1.48-4.15-9.62v-51c0-14.38-3.29-22.82-10.99-28.22-6.94-5.02-17.91-8.16-28.65-8.16h0ZM770.77,388.71v4.88c.01,18.02-.99,22.98-6.33,31.22-4.62,7.07-12.69,12.2-19.3,12.2-7.15,0-11.42-6.73-11.42-18.02,0-8.21,2.5-14.97,7.25-19.53,5.83-5.49,13.4-8.24,29.8-10.75h0Z"/><path id="path1292" class="cls-1" d="M984.07,375.06c0-15.03-.91-19.04-5.62-25.33-5.22-6.57-14.34-10.19-25.67-10.19-17.98,0-30.77,9.61-37.17,27.85-1.14-7.83-1.93-10.3-4.37-15.01-4.37-7.91-14.01-12.84-25.15-12.84-16.32,0-29.65,9.81-37.07,27.11v-24.69h-38.57v5.68h17.45v88.84h-14.2v5.67h51.38v-5.68h-16.07v-26.52c0-20.39,1.16-29.01,5.37-40.01,4.99-13.25,15.41-21.49,27.32-21.49,9.9,0,13.94,5.29,13.94,18.24v69.75h-15.35v5.7h51.39v-5.68h-14.94v-27.99c0-18.69.83-26.98,3.72-36.92,4.25-14.5,15.01-23.11,28.77-23.11,11.94,0,13.73,3.44,13.73,26.22v61.77h-14.33v5.7h51.36v-5.68h-15.93v-61.41Z"/><path id="path1290" class="cls-1" d="M660,339.6c-26.34,0-49.44,24.74-49.44,52.94s22.45,52.32,51.11,52.32c22.75,0,38.08-13.85,41.08-37.02l.13-.99h-5.9l-.12.72c-3.25,20.62-15.29,31.51-34.78,31.51s-28.74-12.69-28.74-40.02v-1.81c0-2.28,0-4.26.23-7.79h68.6s-.05-4.67-.05-5.14c0-26.29-17.32-44.72-42.13-44.72h0ZM659.58,345.55c14,0,20.85,8.96,20.85,27.38v10.71h-46.14c1.48-27.4,8.62-38.09,25.29-38.09Z"/><path id="path1286" class="cls-1" d="M439.6,388.22c-5.21-3.28-8.3-4.53-22.07-9.12-24.84-8.16-28.38-11.45-28.38-19.12,0-8.1,8.41-14.45,19.15-14.45,16.15,0,27.75,12.44,31.03,33.27l.12.73h4.9v-37.57h-5.33l-2.92,7.08s-1.61-1.12-4.69-3.06c-6.99-4.2-14.99-6.42-23.14-6.41-20.23,0-36.09,13.2-36.09,30.06,0,8.73,4.4,15.96,12.69,20.91,5.16,3.03,8.65,4.53,21.84,8.68,24.12,8.1,27.75,10.88,27.75,21.01s-10.08,18.87-22.47,18.87c-17.66,0-30.35-13.71-37.72-40.73l-.17-.63h-4.86v44.42h5.1l3.12-9.07c3.47,2.21,7.05,4.23,10.74,6.06,6.29,2.86,14.45,5.71,23.86,5.71,22.1,0,39.42-14.86,39.42-33.83,0-9.53-4.55-18.26-11.87-22.82h0Z"/><path id="path1284" class="cls-1" d="M235.03,341.98h-38.57v5.68h17.22v35.23c0,12.35-1.1,20.15-3.92,27.85-5.24,15.23-17.22,26.29-28.57,26.29-9.64,0-13.93-7.95-13.93-25.8v-69.26h-38.48v5.68h17.36v58.75c0,14.81,1.68,21.99,6.63,28.44,4.53,6.27,12.95,10.02,22.58,10.02,10.75.08,21.04-4.37,28.36-12.25,4.35-4.75,6.54-7.74,9.97-15.21v24.77h30.93v-5.68h-9.59v-94.49Z"/><path id="path1282" class="cls-1" d="M287.3,300.55h-35.63v5.62h14.5v130.28h-14.5v5.7h50.09v-5.68h-14.5l.05-135.93Z"/><path id="path1280" class="cls-1" d="M367.97,309.37c-1.98,3.31-2.63,4.9-2.63,7.8,0,6.91,4.35,11.37,11.09,11.37s11.28-4.85,11.28-11.79c0-10.88-10.94-19.15-25.46-19.15-9.42-.17-18.5,3.47-25.18,10.11-8.84,8.27-12.69,17.61-13.97,34.28h-14.5v5.68h14.42v88.84h-14.59v5.65h53.1v-5.68h-17.14v-88.84h22.86v-5.68h-23.1v-5.51c0-25.55,3.74-32.94,16.64-32.94,4.64,0,8.97,3.99,8.97,3.99-.65.56-1.25,1.18-1.79,1.85v.02Z"/><path id="path1278" class="cls-1" d="M500.24,436.38c-9.19,0-12.06-3.18-12.06-23.07v-65.67h29.26v-5.68h-29.26v-34.45h-5.56l-.06.8c-1.72,20.12-16.39,32.99-29.38,33.67h-.82v5.63h14.72v71.38c.1,4.37,1.04,8.68,2.77,12.69,3.46,7.84,13.42,13.11,24.76,13.11s20.61-4.94,25.17-13.93c3.31-6.85,4.48-13.67,4.48-26.29h-6.16c-.98,23.72-5.49,31.81-17.86,31.81h0Z"/><path id="path1276" class="cls-1" d="M591.2,339.58c-12.55,0-21.25,5.83-27.11,18.27v-15.88h-38.64v5.68h17.22v88.84h-14.94v5.67h51.38v-5.67h-15.19v-39.54c0-16.64,1.25-25.04,5.15-34.53,3.9-9.49,11.51-15.84,19.04-15.84,3.53,0,5,1.45,5,1.45-.32.21-.63.45-.91.72-3.95,3.35-5.16,5.71-5.16,9.97-.04,6.93,5.55,12.59,12.48,12.63.09,0,.18,0,.27,0,7.14,0,12.69-6.1,12.69-13.89,0-10.49-8.77-17.87-21.3-17.87h0Z"/><path id="path1195" class="cls-1" d="M80.28,375.63h18.21v24.25c0,14.05-2.52,22.31-9.29,29.14-6.11,6.16-15.41,9.43-25.53,9.43-26.21,0-38.27-21.76-38.27-67.76s12.86-66.5,39.53-66.5c15.58,0,25.22,5.92,33.81,21.37,4.15,6.92,7.39,14.34,9.65,22.08h7.98v-47.35h-5.6l-8.24,13.76s-.29-1.03-8.44-7.06c-8.46-6.06-18.6-9.35-29.01-9.41C28.01,297.58,0,333.62,0,371.74s28.01,73.11,63.6,73.11c14.82,0,24.29-4.53,37.5-18.13,1.65-1.66,3.18-3.43,4.59-5.3l10.09,20.74h5.84v-66.52h11.91v-5.67h-53.26v5.67Z"/><path id="path1240" class="cls-1" d="M488.39,95.95v8.82h110.86c-2.8,48.21-51.36,86.6-110.86,86.6s-111-40.75-111-91.01S427.08,9.34,488.39,9.34c45.1,0,83.9,22.07,101.27,53.74h32.19C600.66,26.11,548.9,0,488.39,0c-77.28,0-140.26,42.55-143.56,95.95h-37.5v8.82h37.5c3.3,53.38,66.31,95.95,143.56,95.95s140.26-42.55,143.57-95.95h37.49v-8.82h-181.05Z"/></svg>