<?xml version="1.0" encoding="UTF-8"?><svg id="Layer_1" xmlns="http://www.w3.org/2000/svg" viewBox="0 0 254.05 44.8"><defs><style>.cls-1{fill:#fff;}</style></defs><path class="cls-1" d="M109.58,33.93h-11.42c-1.83,0-3.13-.48-3.86-1.42-.76-.98-.89-2.43-.39-4.34l3.03-11.66c.96-3.68,3.41-5.63,7.08-5.63h11.42c1.83,0,3.13.48,3.86,1.42.76.98.89,2.44.39,4.34l-3.03,11.66c-.96,3.68-3.41,5.63-7.08,5.63M103.17,14.7c-1.19-.09-2.25.73-2.46,1.9l-3.05,11.73c-.18.44-.14.93.09,1.34.34.33.82.49,1.29.43h11.42c1.19.09,2.25-.73,2.46-1.9l3.05-11.72c.33-.58.13-1.32-.45-1.66-.28-.16-.62-.2-.93-.12h-11.42Z"/><path class="cls-1" d="M143.05,33.92h-1.91l-13.64-17.26-4.49,17.26h-3.36l6-23.05h3.13l.14.18,12.48,16.26,4.28-16.45h3.36l-6,23.05Z"/><path class="cls-1" d="M195.31,33.93h-3.99l-1.44-10.06h-8.7l-2.62,10.06h-3.78l5.99-23.05h14.88c1.83,0,3.13.48,3.86,1.42.76.98.89,2.44.39,4.34l-.41,1.6c-.84,3.23-2.73,5.09-5.63,5.53l1.44,10.16ZM182.19,20.04h11.1c1.19.09,2.25-.73,2.46-1.9l.43-1.67c.33-.58.13-1.32-.45-1.66-.28-.16-.62-.2-.93-.12h-11.23l-1.38,5.34Z"/><path class="cls-1" d="M215.58,33.92h-16.16l6-23.05h16.03c2.32,0,3.84.51,4.64,1.54.85,1.1.93,2.83.25,5.43l-2.46,9.45c-1.22,4.71-3.63,6.62-8.3,6.62M204.19,30.1h12.25c2.3,0,3.09-.63,3.69-2.95l2.45-9.42c.35-1.33.36-2.07.04-2.48-.29-.37-.92-.54-2.05-.54h-12.38l-4.01,15.39Z"/><path class="cls-1" d="M243.64,33.93h-11.42c-1.83,0-3.13-.48-3.86-1.42-.76-.98-.89-2.44-.39-4.34l3.03-11.66c.96-3.68,3.41-5.63,7.08-5.63h11.42c1.83,0,3.13.48,3.86,1.42.76.98.89,2.43.39,4.34l-3.03,11.66c-.96,3.68-3.41,5.63-7.08,5.63M237.22,14.7c-1.19-.09-2.25.73-2.46,1.9l-3.05,11.72c-.18.44-.14.93.09,1.35.34.33.82.49,1.29.43h11.42c1.19.09,2.25-.73,2.46-1.9l3.05-11.72c.18-.44.14-.93-.09-1.34-.34-.33-.82-.49-1.29-.43h-11.42Z"/><path class="cls-1" d="M170.44,33.92h-4.01l2.62-10.14h-14.99l-2.61,10.14h-4.01l4.5-17.45c.99-3.79,3.41-5.72,7.19-5.72h11.42c1.87,0,3.2.49,3.95,1.46h0c.78,1.01.92,2.5.41,4.43l-4.46,17.27ZM155.1,19.73h14.99l.85-3.29c.15-.41.13-.86-.07-1.24-.33-.29-.76-.43-1.2-.39h-11.41c-1.14-.11-2.17.68-2.35,1.81l-.8,3.1Z"/><path class="cls-1" d="M33.41,33.49c-13.76-3.68-19.74-9.37-19.74-9.37,0,0,5.9,9.95,15.15,13.88l.52.22.15.05h0c.17.07.35.13.52.19.27.1.57.02.76-.2l3.03-3.67c.24-.29.19-.72-.1-.96-.08-.07-.18-.12-.29-.14"/><path class="cls-1" d="M37.01,18.99c-.75-.1-1.5-.15-2.25-.16-5.57,0-20.33,2.67-20.33,2.67l22.49,3.19h.06s.07-.05.1-.08c.16-.12.25-.31.25-.51.07-.67.28-2.99.37-4.24.03-.43-.28-.81-.7-.88"/><path class="cls-1" d="M14.43,18.1c7.01-6.42,19.08-8.7,20.32-8.96.37-.07.61-.42.55-.79-.02-.09-.05-.17-.1-.24-.44-.71-2.12-3-2.77-3.81-.18-.22-.48-.31-.76-.22l-.09.03-.05.02v-.02l-.72.27c-8.73,3.32-14.06,10.41-16.37,13.71"/><path class="cls-1" d="M10.89,18.11c.16-1.07.39-2.13.69-3.16,2.33-6.81,7.44-11.89,9.53-13.75.22-.2.3-.52.18-.79-.12-.27-.4-.43-.69-.4l-4.42.36c-.15,0-.31.04-.45.09-.08.03-.15.08-.19.14l-.73.94c-.21.27-.42.57-.61.86-.03.04-.06.08-.08.13l-.37.61c-2.34,4.62-3.33,9.81-2.85,14.97"/><path class="cls-1" d="M8.67,18.44c-1.48-2.96-2.33-6.19-2.52-9.49l-.02-.55c0-.33-.22-.61-.53-.71-.31-.09-.65.03-.83.3-.74,1.27-1.36,2.6-1.85,3.98-.07.19-.07.39.01.58,1.11,2.6,5.74,5.88,5.74,5.88"/><path class="cls-1" d="M2.31,29.01c-.11.16-.16.35-.13.54.2,1.46.55,2.9,1.02,4.3.12.31.44.5.77.45.44,0,.61-.67.77-1.12.99-3.13,2.27-6.17,3.81-9.07,0,0-4.37,2.36-6.25,4.89"/><path class="cls-1" d="M20.19,41.39l-.32-.34-.03-.03c-4.64-4.43-7.74-10.22-8.86-16.53,0,0-1.75,12.77,4.9,20.18.06.05.13.09.21.11h0l.21.04,5.03-.81.12-.03c.15-.07.28-.19.34-.35.12-.26.06-.57-.15-.77-.32-.31-.81-.79-1.43-1.46"/><path class="cls-1" d="M8.08,20.99l-2.27-.49c-1.43-.28-2.78-.83-3.99-1.63-.07-.06-.14-.12-.2-.19-.18-.2-.45-.28-.71-.22h-.03c-.26.07-.46.28-.53.55-.22,1.18-.34,2.37-.35,3.57.05.18.17.33.33.42l.22.07.13-.02c1.07-.15,4.05-1.07,5.28-1.46l2.11-.59Z"/><path class="cls-1" d="M88.39,33.92h-18.29l5.99-23.05h18.29l-1,3.83h-14.51l-1.34,5.14h13.77l-1,3.83h-13.77l-1.67,6.42h14.51l-1,3.83Z"/><path class="cls-1" d="M66.44,33.92h-17.82l6-23.05h3.8l-5,19.22h14.02l-1,3.83Z"/></svg>