<?xml version="1.0" encoding="UTF-8"?><svg id="layer" xmlns="http://www.w3.org/2000/svg" viewBox="0 0 599.94 243.37"><defs><style>.cls-1{fill:#fff;}</style></defs><path class="cls-1" d="M93.84,121.64s-.9-10.7,8.1-19.7c9-9,19.8-8.1,19.8-8.1v27.9l-27.9-.1Z"/><path class="cls-1" d="M35.54,121.64s-1.9-33.7,25.2-60.8c27.1-27.1,60.9-25.2,60.9-25.2v31.7s-21.2-1.3-38.4,15.9c-17.2,17.2-15.9,38.5-15.9,38.5l-31.8-.1Z"/><path class="cls-1" d="M.04,121.54s-2.6-47.7,35.6-85.9C73.84-2.56,121.64.04,121.64.04v8.7s-44.3-2.4-79.8,33.1C6.34,77.34,8.84,121.54,8.84,121.54H.04Z"/><path class="cls-1" d="M121.74,149.64s10.7.9,19.7-8.1,8.1-19.8,8.1-19.8h-27.9l.1,27.9Z"/><path class="cls-1" d="M121.74,207.84s33.7,1.9,60.8-25.2,25.2-60.9,25.2-60.9h-31.7s1.3,21.2-15.9,38.5c-17.2,17.2-38.4,15.9-38.4,15.9v31.7Z"/><path class="cls-1" d="M121.84,243.34s47.7,2.6,85.9-35.6,35.4-86,35.4-86h-8.5s2.4,44.4-33.1,79.8c-35.5,35.5-79.7,33-79.7,33v8.8Z"/><polygon class="cls-1" points="259.34 121.64 261.44 121.64 263.44 121.64 263.44 127.64 271.14 127.64 271.14 121.64 273.14 121.64 275.24 121.64 275.24 137.74 273.14 137.74 271.14 137.74 271.14 130.94 263.44 130.94 263.44 137.74 261.44 137.74 259.34 137.74 259.34 121.64"/><polygon class="cls-1" points="279.54 137.74 279.54 121.64 293.64 121.64 293.64 123.14 293.64 124.64 283.64 124.64 283.64 127.94 292.74 127.94 292.74 129.34 292.74 130.74 283.64 130.74 283.64 134.64 294.04 134.64 294.04 136.34 294.04 137.74 279.54 137.74"/><polygon class="cls-1" points="297.04 137.74 297.04 121.64 299.14 121.64 301.24 121.64 301.24 134.94 309.44 134.94 309.44 136.34 309.44 137.74 297.04 137.74"/><polygon class="cls-1" points="312.54 121.64 314.64 121.64 316.64 121.64 316.64 137.74 314.64 137.74 312.54 137.74 312.54 121.64"/><path class="cls-1" d="M344.24,135.94c-1.7-1.5-2.5-3.6-2.5-6.2s.8-4.7,2.5-6.2,4-2.3,6.9-2.3,5.2.8,6.9,2.3c1.7,1.5,2.5,3.6,2.5,6.2s-.8,4.6-2.5,6.2c-1.7,1.5-4,2.3-6.9,2.3-3-.1-5.3-.8-6.9-2.3M354.94,133.64c1-1,1.4-2.3,1.4-3.9,0-1.7-.5-3-1.4-4-1-1-2.2-1.5-3.9-1.5-1.6,0-2.9.5-3.9,1.5s-1.4,2.3-1.4,4,.5,3,1.4,3.9c1,1,2.2,1.5,3.9,1.5,1.6,0,2.9-.5,3.9-1.5"/><polygon class="cls-1" points="386.34 124.54 380.84 124.54 380.84 123.14 380.84 121.64 395.84 121.64 395.84 123.14 395.84 124.54 390.54 124.54 390.54 137.74 388.44 137.74 386.34 137.74 386.34 124.54"/><polygon class="cls-1" points="398.24 137.74 398.24 121.64 412.24 121.64 412.24 123.14 412.24 124.64 402.34 124.64 402.34 127.94 411.34 127.94 411.34 129.34 411.34 130.74 402.34 130.74 402.34 134.64 412.54 134.64 412.54 136.34 412.54 137.74 398.24 137.74"/><path class="cls-1" d="M415.84,121.64h9.2c2.2,0,3.9.4,5,1.1,1.2.8,1.7,1.9,1.7,3.3s-.6,2.5-1.7,3.3c-.3.2-.7.4-1.2.6.2.1.4.1.5.2,1.3.6,1.9,1.7,1.9,3.3v1.8c0,.7.1,1.1.2,1.4s.3.4.6.6v.4h-4.5c-.1-.3-.3-.7-.3-1.3-.1-.5-.1-1.1-.1-1.6v-.8c0-.9-.2-1.5-.6-1.9s-1.2-.6-2.2-.6h-4.5v6.1h-4.2v-15.9h.2ZM419.94,128.84h4.7c1.1,0,1.9-.2,2.4-.5.5-.4.8-.9.8-1.6s-.2-1-.7-1.4-1.2-.5-2.2-.5h-4.9v4h-.1Z"/><path class="cls-1" d="M462.24,131.74c-.3,1.8-1.6,3.8-3.1,4.9s-4.4,1.6-6.6,1.6c-2.8,0-5-.8-6.6-2.3s-2.5-3.6-2.5-6.2.8-4.7,2.5-6.2c1.6-1.5,3.8-2.3,6.6-2.3,2.3,0,5.1.5,6.6,1.5s2.5,2.7,2.8,4.5h-4c-.1-.9-.9-1.6-1.6-2.1-.8-.5-2.7-.8-3.9-.8-1.5,0-2.7.5-3.6,1.5s-1.3,2.1-1.3,3.8.4,2.8,1.3,3.8,2.1,1.5,3.6,1.5c1.2,0,3.1-.3,3.8-.8.8-.5,1.6-1.6,1.8-2.5h4.2v.1Z"/><path class="cls-1" d="M467.54,135.94c-1.7-1.5-2.5-3.6-2.5-6.2s.8-4.7,2.5-6.2,4-2.3,6.9-2.3,5.2.8,6.9,2.3c1.7,1.5,2.5,3.6,2.5,6.2s-.8,4.6-2.5,6.2c-1.7,1.5-4,2.3-6.9,2.3-3-.1-5.2-.8-6.9-2.3M478.24,133.64c1-1,1.4-2.3,1.4-4s-.5-3-1.4-4c-1-1-2.2-1.5-3.9-1.5-1.6,0-2.9.5-3.9,1.5s-1.4,2.3-1.4,4,.5,3,1.4,4c1,1,2.2,1.5,3.9,1.5,1.6,0,2.9-.5,3.9-1.5"/><polygon class="cls-1" points="491.34 137.74 489.44 137.74 487.54 137.74 487.54 121.64 490.54 121.64 493.54 121.64 497.64 133.24 498.04 133.24 502.44 121.64 505.44 121.64 508.44 121.64 508.44 137.74 506.54 137.74 504.64 137.74 504.64 126.14 504.64 126.74 499.54 137.74 497.54 137.74 496.14 137.74 491.34 126.54 491.34 126.64 491.34 137.74"/><path class="cls-1" d="M512.54,121.64h9c2.1,0,3.7.4,4.8,1.3s1.6,2.6,1.6,4.2-.6,3.1-1.7,4c-1.1.9-2.6,1.4-4.5,1.4h-5.2v5.2h-4v-16.1h0ZM516.54,129.44h4.8c.9,0,1.6-.1,2.1-.4.4-.4.7-.7.7-2.2,0-.8-.2-1.1-.7-1.5s-1.2-.6-2.2-.6h-4.5v4.7h-.2Z"/><path class="cls-1" d="M534.34,121.64h4.7l7,16.1h-4.4l-1.3-3.2h-7.4l-1.3,3.2h-4.2l6.9-16.1ZM534.24,131.34h4.9l-2.4-5.8h0l-2.5,5.8Z"/><polygon class="cls-1" points="552.34 137.74 550.34 137.74 548.14 137.74 548.14 121.64 550.64 121.64 552.74 121.64 560.54 132.84 560.54 121.64 562.44 121.64 564.64 121.64 564.64 137.74 562.44 137.74 560.14 137.74 552.34 126.64 552.34 137.74"/><polygon class="cls-1" points="573.24 131.74 566.44 121.74 568.84 121.74 571.24 121.74 575.24 127.74 575.24 127.74 579.24 121.74 581.54 121.74 583.84 121.74 577.34 131.74 577.34 137.84 575.34 137.84 573.24 137.84 573.24 131.74"/><path class="cls-1" d="M339.04,131.74c-.3,1.8-1.6,3.8-3.1,4.9s-4.4,1.6-6.6,1.6c-2.8,0-5-.8-6.6-2.3s-2.5-3.6-2.5-6.2.8-4.7,2.5-6.2c1.6-1.5,3.8-2.3,6.6-2.3,2.3,0,5.1.5,6.6,1.5s2.5,2.7,2.8,4.5h-4c-.1-.9-.9-1.6-1.6-2.1-.8-.5-2.7-.8-3.9-.8-1.5,0-2.7.5-3.6,1.5s-1.3,2.1-1.3,3.8.4,2.8,1.3,3.8,2.1,1.5,3.6,1.5c1.2,0,3.1-.3,3.8-.8.8-.5,1.6-1.6,1.8-2.5h4.2v.1Z"/><path class="cls-1" d="M364.24,121.64h9c2.1,0,3.7.4,4.8,1.3,1.1.9,1.6,2.6,1.6,4.2s-.6,3.1-1.7,4-2.6,1.4-4.5,1.4h-5.2v5.2h-4v-16.1ZM368.24,129.44h4.8c.9,0,1.6-.1,2.1-.4.4-.4.7-.7.7-2.2,0-.8-.2-1.1-.7-1.5s-1.2-.6-2.2-.6h-4.5v4.7h-.2Z"/><path class="cls-1" d="M140.34,55.94h31.8c6,0,10.8,1.3,14.5,3.8s5.5,5.9,5.5,10c0,4.8-2,8.3-6.1,10.5-1.1.6-2.3,1.1-3.7,1.5.8.3,1.5.5,2.1.8,3.6,1.7,5.5,4.5,5.6,8.5l.3,8.2c.1,1.6.3,2.8.6,3.4.4.7,1.1,1.2,2.1,1.6v1.4h-14.5c-.3-.5-.6-1.6-.9-3.3-.3-1.7-.4-3.5-.4-5.5l-.1-4.6c-.1-2.2-.9-3.8-2.5-4.8-1.6-.9-4.3-1.4-8-1.4h-13.1v19.7h-13.2v-49.8h0ZM153.44,77.64h15.3c3.4,0,6-.5,7.7-1.6s2.6-2.7,2.6-5-.8-3.8-2.4-4.9c-1.6-1.1-4-1.6-7.3-1.6h-15.8v13.1h-.1Z"/><path class="cls-1" d="M204.14,100.04c-5.5-4.7-8.2-11-8.2-18.9s2.7-14.6,8.2-19.3c5.5-4.8,12.8-7.2,22.1-7.2s16.7,2.4,22.1,7.2,8.2,11.2,8.2,19.3-2.7,14.3-8.2,18.9c-5.4,4.7-12.8,7-22.1,7s-16.7-2.4-22.1-7M238.74,93.64c3-3,4.5-7.2,4.5-12.6s-1.5-9.8-4.5-12.9-7.2-4.7-12.6-4.7-9.5,1.6-12.5,4.7-4.5,7.4-4.5,12.9,1.5,9.6,4.5,12.6,7.2,4.5,12.6,4.5,9.5-1.5,12.5-4.5"/><path class="cls-1" d="M264.14,55.94h30.5c6.1,0,10.8,1.1,14.3,3.3,3.4,2.2,5.1,5.3,5.1,9.3s-1.9,7.3-5.8,9.4c-.6.4-1.3.7-2.1,1,1.5.5,2.8,1,3.9,1.6,4,2.2,6.1,5.4,6.1,9.6,0,5.1-2,8.9-6,11.6-4,2.6-9.8,4-17.5,4h-28.5v-49.8ZM276.64,75.44h15.1c3.3,0,5.8-.5,7.4-1.5s2.4-2.4,2.4-4.4c0-1.7-.9-3-2.6-3.8s-4.3-1.3-7.8-1.3h-14.5v11ZM276.64,97.04h16c3.4,0,6-.6,7.7-1.8,1.7-1.2,2.6-2.9,2.6-5.3,0-2.1-.9-3.6-2.6-4.6-1.8-1-4.4-1.5-7.9-1.5h-15.8v13.2h0Z"/><polygon class="cls-1" points="322.44 55.94 328.94 55.94 335.54 55.94 335.54 105.64 329.04 105.64 322.44 105.64 322.44 55.94"/><polygon class="cls-1" points="357.24 105.64 351.14 105.64 344.94 105.64 344.94 55.94 351.84 55.94 358.74 55.94 383.94 90.84 383.94 55.94 390.04 55.94 396.24 55.94 396.24 105.64 389.74 105.64 383.14 105.64 357.24 69.84 357.24 105.64"/><path class="cls-1" d="M442.74,70.84c-.2-2.4-1.5-4.2-3.9-5.6s-5.5-2.1-9.4-2.1c-3.3,0-6,.6-7.8,1.7-1.9,1.2-2.8,2.8-2.8,4.8,0,1.5,1,2.6,3,3.4,1.9.8,6.1,1.8,12.4,2.9,9.2,1.6,15.3,3.5,18.4,5.6s4.6,5.5,4.6,10.1-2.3,8.4-7,11.1-11,4.1-18.9,4.1-14.2-1.5-18.7-4.4-6.9-7.1-7.2-12.4h12.6c.1,2.6,1.4,4.7,3.7,6.1,2.3,1.4,5.5,2.1,9.6,2.1s7.5-.5,9.9-1.6,3.5-2.6,3.5-4.4c0-1.9-.8-3.2-2.5-4.1s-5.2-1.8-10.6-2.7c-10-1.8-16.7-3.7-20.1-5.7-3.3-2-5-5.2-5-9.5,0-4.8,2.2-8.7,6.6-11.5,4.4-2.8,10.4-4.2,18-4.2,7.1,0,12.8,1.5,17.2,4.4,4.4,2.9,6.9,6.9,7.4,11.9h-13Z"/><path class="cls-1" d="M470.94,100.04c-5.5-4.7-8.2-11-8.2-18.9s2.7-14.6,8.2-19.3c5.5-4.8,12.8-7.2,22.1-7.2s16.7,2.4,22.1,7.2c5.4,4.8,8.2,11.2,8.2,19.3s-2.7,14.3-8.2,18.9c-5.4,4.7-12.8,7-22.1,7s-16.6-2.4-22.1-7M505.64,93.64c3-3,4.5-7.2,4.5-12.6s-1.5-9.8-4.5-12.9-7.2-4.7-12.6-4.7-9.5,1.6-12.5,4.7-4.5,7.4-4.5,12.9,1.5,9.6,4.5,12.6,7.2,4.5,12.6,4.5,9.4-1.5,12.5-4.5"/><polygon class="cls-1" points="542.94 105.64 536.84 105.64 530.64 105.64 530.64 55.94 537.54 55.94 544.44 55.94 569.64 90.84 569.64 55.94 575.74 55.94 581.94 55.94 581.94 105.64 575.44 105.64 568.84 105.64 542.94 69.84 542.94 105.64"/><path class="cls-1" d="M592.94,91.44c3.9,0,7,3.2,7,7s-3.2,7-7,7-7-3.2-7-7,3.2-7,7-7M597.74,98.44c0-3-2-5-4.8-5s-4.8,1.9-4.8,5,2,5,4.8,5,4.8-1.9,4.8-5M590.14,94.94h2.8c2,0,3.1.5,3.1,2.3,0,1.4-.8,1.9-1.9,2l1.6,3h-1.8l-1.4-2.9h-.7v2.9h-1.7v-7.3ZM591.84,97.94h1.4c.6,0,1-.2,1-.9s-.8-.7-1.4-.7h-1v1.6Z"/></svg>